<svg width="260" height="62" viewBox="0 0 260 62" fill="none" xmlns="http://www.w3.org/2000/svg">
<path d="M4.808 54.04C3.528 54.04 2.504 53.6987 1.736 53.016C0.968 52.3333 0.584 51.3947 0.584 50.2V18.072C0.584 15.0853 1.43733 12.76 3.144 11.096C4.89333 9.432 7.304 8.6 10.376 8.6H30.28C31.56 8.6 32.5413 8.89867 33.224 9.496C33.9067 10.0507 34.248 10.8613 34.248 11.928C34.248 12.952 33.8853 13.7627 33.16 14.36C32.4773 14.9147 31.5173 15.192 30.28 15.192H11.848C10.9947 15.192 10.312 15.4693 9.8 16.024C9.33067 16.5787 9.096 17.3467 9.096 18.328V27.864H25.416C26.696 27.864 27.6773 28.1627 28.36 28.76C29.0427 29.3147 29.384 30.1253 29.384 31.192C29.384 32.216 29.0213 33.0267 28.296 33.624C27.6133 34.1787 26.6533 34.456 25.416 34.456H9.096V50.2C9.096 51.352 8.69067 52.2907 7.88 53.016C7.112 53.6987 6.088 54.04 4.808 54.04Z" fill="#4F46E5"/>
<path d="M46.2905 54.04C45.0105 54.04 43.9865 53.6987 43.2185 53.016C42.4505 52.3333 42.0665 51.3947 42.0665 50.2V11.8C42.0665 10.6053 42.4505 9.66667 43.2185 8.984C43.9865 8.30133 45.0105 7.96 46.2905 7.96C47.5278 7.96 48.5518 8.30133 49.3625 8.984C50.1732 9.66667 50.5785 10.6053 50.5785 11.8V50.2C50.5785 51.3947 50.1732 52.3333 49.3625 53.016C48.5518 53.6987 47.5278 54.04 46.2905 54.04Z" fill="#4F46E5"/>
<path d="M63.5505 54.04C62.2705 54.04 61.2465 53.6987 60.4785 53.016C59.7105 52.3333 59.3265 51.3947 59.3265 50.2V26.072C59.3265 20.3973 61.0972 15.96 64.6385 12.76C68.1798 9.56 73.0865 7.96 79.3585 7.96C85.6305 7.96 90.5372 9.56 94.0785 12.76C97.6198 15.96 99.3905 20.3973 99.3905 26.072V50.2C99.3905 51.3947 99.0065 52.3333 98.2385 53.016C97.4705 53.6987 96.4465 54.04 95.1665 54.04C93.8865 54.04 92.8412 53.6987 92.0305 53.016C91.2625 52.2907 90.8785 51.352 90.8785 50.2V25.88C90.8785 22.2533 89.8972 19.48 87.9345 17.56C85.9718 15.64 83.1132 14.68 79.3585 14.68C75.6038 14.68 72.7452 15.64 70.7825 17.56C68.8198 19.48 67.8385 22.2533 67.8385 25.88V50.2C67.8385 51.352 67.4332 52.2907 66.6225 53.016C65.8545 53.6987 64.8305 54.04 63.5505 54.04Z" fill="#4F46E5"/>
<path d="M130.391 0L103.391 12.4V28.21C103.391 43.834 114.933 58.466 130.391 62C145.848 58.466 157.391 43.834 157.391 28.21V12.4L130.391 0ZM125.531 43.4L111.828 30.814L118.983 24.242L125.531 30.256L141.798 15.5L148.953 22.072L125.531 43.4Z" fill="#4F46E5"/>
<path d="M163.119 49.456C162.575 49.456 162.143 49.296 161.823 48.976C161.535 48.624 161.391 48.144 161.391 47.536V26.896C161.391 26.288 161.535 25.824 161.823 25.504C162.111 25.152 162.543 24.976 163.119 24.976C163.663 24.976 164.079 25.152 164.367 25.504C164.687 25.824 164.847 26.288 164.847 26.896V29.776C167.023 26.896 170.031 25.456 173.871 25.456H175.071C175.679 25.456 176.159 25.6 176.511 25.888C176.863 26.144 177.039 26.512 177.039 26.992C177.039 27.472 176.863 27.84 176.511 28.096C176.159 28.352 175.679 28.48 175.071 28.48H173.727C171.007 28.48 168.847 29.264 167.247 30.832C165.679 32.368 164.895 34.464 164.895 37.12V47.536C164.895 48.112 164.735 48.576 164.415 48.928C164.127 49.28 163.695 49.456 163.119 49.456Z" fill="#504C4C"/>
<path d="M188.689 49.456C185.553 49.456 183.089 48.768 181.297 47.392C179.537 46.016 178.657 44.112 178.657 41.68C178.657 39.28 179.585 37.376 181.441 35.968C183.329 34.56 185.889 33.856 189.121 33.856C191.009 33.856 192.673 34.112 194.113 34.624C195.585 35.136 196.721 35.824 197.521 36.688V33.616C197.521 31.792 196.913 30.4 195.697 29.44C194.513 28.48 192.769 28 190.465 28C187.489 28 184.913 28.704 182.737 30.112C182.193 30.432 181.745 30.592 181.393 30.592C181.073 30.592 180.753 30.464 180.433 30.208C180.081 29.92 179.905 29.552 179.905 29.104C179.905 28.624 180.113 28.224 180.529 27.904C181.681 27.008 183.137 26.304 184.897 25.792C186.689 25.248 188.513 24.976 190.369 24.976C193.761 24.976 196.385 25.744 198.241 27.28C200.129 28.816 201.073 30.976 201.073 33.76V47.584C201.073 48.832 200.497 49.456 199.345 49.456C198.833 49.456 198.417 49.296 198.097 48.976C197.777 48.624 197.617 48.176 197.617 47.632V45.904C195.633 48.272 192.657 49.456 188.689 49.456ZM189.121 46.528C191.617 46.528 193.649 46.064 195.217 45.136C196.785 44.176 197.569 42.944 197.569 41.44C197.569 39.936 196.833 38.784 195.361 37.984C193.921 37.152 191.873 36.736 189.217 36.736C186.977 36.736 185.249 37.168 184.033 38.032C182.817 38.864 182.209 40.08 182.209 41.68C182.209 43.248 182.801 44.448 183.985 45.28C185.169 46.112 186.881 46.528 189.121 46.528Z" fill="#504C4C"/>
<path d="M209.337 49.456C208.793 49.456 208.361 49.296 208.041 48.976C207.753 48.624 207.609 48.144 207.609 47.536V26.896C207.609 26.288 207.753 25.824 208.041 25.504C208.329 25.152 208.761 24.976 209.337 24.976C209.881 24.976 210.297 25.152 210.585 25.504C210.905 25.824 211.065 26.288 211.065 26.896V29.728C212.249 28.16 213.673 26.976 215.337 26.176C217.033 25.376 218.889 24.976 220.905 24.976C223.945 24.976 226.281 25.824 227.913 27.52C229.577 29.216 230.409 31.648 230.409 34.816V47.536C230.409 48.144 230.249 48.624 229.929 48.976C229.609 49.296 229.177 49.456 228.633 49.456C228.057 49.456 227.625 49.296 227.337 48.976C227.049 48.624 226.905 48.144 226.905 47.536V34.816C226.905 30.272 224.761 28 220.473 28C217.657 28 215.385 28.832 213.657 30.496C211.961 32.16 211.113 34.368 211.113 37.12V47.536C211.113 48.112 210.953 48.576 210.633 48.928C210.345 49.28 209.913 49.456 209.337 49.456Z" fill="#504C4C"/>
<path d="M238.777 49.456C238.233 49.456 237.801 49.296 237.481 48.976C237.193 48.624 237.049 48.144 237.049 47.536V14.464C237.049 13.856 237.193 13.392 237.481 13.072C237.801 12.72 238.233 12.544 238.777 12.544C239.321 12.544 239.753 12.72 240.073 13.072C240.393 13.392 240.553 13.856 240.553 14.464V35.968L256.489 25.216C256.809 24.992 257.145 24.88 257.497 24.88C258.041 24.88 258.441 25.104 258.697 25.552C258.857 25.776 258.937 26.08 258.937 26.464C258.937 27.04 258.681 27.488 258.169 27.808L249.577 33.52C252.361 35.408 254.521 37.488 256.057 39.76C257.593 42 258.649 44.608 259.225 47.584C259.321 48.096 259.225 48.544 258.937 48.928C258.649 49.28 258.233 49.456 257.689 49.456C256.633 49.456 256.009 49.008 255.817 48.112C255.145 45.04 254.153 42.608 252.841 40.816C251.561 38.992 249.529 37.184 246.745 35.392L240.553 39.568V47.536C240.553 48.112 240.393 48.576 240.073 48.928C239.785 49.28 239.353 49.456 238.777 49.456Z" fill="#504C4C"/>
</svg>
